<svg width="28" height="27" viewBox="0 0 28 27" fill="none" xmlns="http://www.w3.org/2000/svg">
<path d="M14.0582 4.18372V4.18148C11.2643 4.18148 8.46941 4.18148 5.67559 4.18148C4.34073 4.18148 3.72472 4.79078 3.72472 6.11781C3.72472 10.9609 3.72472 15.8039 3.72472 20.647C3.72472 22.1049 4.29601 22.6907 5.73484 22.6907C11.3046 22.6929 16.8743 22.6907 22.4441 22.6896C23.6291 22.6896 24.282 22.049 24.2832 20.8673C24.2876 15.9124 24.2876 10.9575 24.2832 6.00266C24.2832 4.82879 23.6213 4.18483 22.4407 4.18372C19.6469 4.1826 16.852 4.18372 14.0582 4.18372ZM12.8865 24.0524C12.8809 24.0904 12.8753 24.1284 12.8698 24.1653C14.7401 25.025 16.6038 25.9015 18.4853 26.7377C19.2366 27.072 20.1344 26.8283 20.5693 26.1396C20.9695 25.5046 21.2467 24.7913 21.6079 24.0524H12.8876H12.8865ZM6.43246 2.79296H15.1471C13.2868 1.85386 11.4253 0.977364 9.5449 0.143354C8.71089 -0.226695 7.75167 0.108697 7.32349 0.89128C6.99592 1.4894 6.74102 2.12664 6.43246 2.79296ZM25.6583 15.0527L25.7298 15.0739C26.442 13.5255 27.1709 11.9861 27.8584 10.4276C28.1771 9.70539 27.9289 8.79536 27.2939 8.37948C26.8064 8.05973 26.2519 7.84173 25.6594 7.54323V15.0527H25.6583ZM2.35297 19.3558V11.8094C1.56592 13.35 0.825816 14.8984 0.147205 16.4736C-0.15912 17.1846 0.0074582 17.9147 0.608929 18.3954C1.0986 18.7867 1.71796 19.0148 2.35297 19.3558Z" fill="white"/>
<path d="M14.0582 4.18369C16.852 4.18369 19.6469 4.18369 22.4407 4.18369C23.6202 4.18369 24.2821 4.82877 24.2832 6.00264C24.2876 10.9575 24.2876 15.9124 24.2832 20.8672C24.2832 22.0489 23.6292 22.6895 22.4441 22.6895C16.8744 22.6918 11.3046 22.6929 5.73485 22.6906C4.29602 22.6906 3.72585 22.1048 3.72473 20.647C3.72473 15.8039 3.72473 10.9609 3.72473 6.11779C3.72473 4.79075 4.34074 4.18146 5.6756 4.18146C8.46942 4.18146 11.2644 4.18146 14.0582 4.18146V4.18369ZM5.78963 6.20052V20.6515H22.2317V6.20052H5.78963Z" fill="#5A9ACD"/>
<path d="M12.8865 24.0524H21.6067C21.2456 24.7913 20.9695 25.5046 20.5681 26.1396C20.1332 26.8283 19.2366 27.072 18.4842 26.7377C16.6027 25.9015 14.739 25.025 12.8686 24.1653C12.8742 24.1273 12.8798 24.0893 12.8854 24.0524H12.8865Z" fill="#64458E"/>
<path d="M6.43246 2.79296C6.74103 2.12664 6.99592 1.4894 7.32349 0.891283C7.75167 0.1087 8.7109 -0.225574 9.54491 0.143357C11.4253 0.976249 13.2868 1.85274 15.1471 2.79296H6.43246Z" fill="#64458E"/>
<path d="M25.6583 15.0527V7.54321C26.2519 7.84171 26.8053 8.05972 27.2927 8.37946C27.9278 8.79535 28.1771 9.70426 27.8573 10.4276C27.1698 11.986 26.4409 13.5266 25.7287 15.0739L25.6572 15.0527H25.6583Z" fill="#64458E"/>
<path d="M2.35297 19.3558C1.71796 19.0159 1.0986 18.7867 0.608929 18.3954C0.0074582 17.9158 -0.15912 17.1847 0.147205 16.4736C0.824698 14.8984 1.56592 13.35 2.35297 11.8094V19.3558Z" fill="#64458E"/>
<path d="M5.78961 6.20056H22.2317V20.6515H5.78961V6.20056ZM12.1017 14.2243C12.0413 14.2377 11.9821 14.25 11.9217 14.2634C11.6724 13.6865 11.3851 13.1231 11.185 12.5305C11.0251 12.0565 10.6617 11.7256 10.1654 11.7603C9.68575 11.7949 9.37496 12.1448 9.29782 12.6256C9.23297 13.0325 9.129 13.445 8.96131 13.8196C8.70529 14.3953 8.38331 14.942 8.08258 15.4965C7.81315 15.994 7.60744 16.5128 7.0641 16.8403C6.66051 17.0852 6.62139 17.5603 6.87293 17.9851C7.10547 18.3787 7.47328 18.5374 7.92159 18.4245C8.36543 18.3127 8.66169 17.8599 8.6248 17.4083C8.61362 17.2685 8.55995 17.0997 8.61585 16.9913C9.15583 15.9415 9.7137 14.9006 10.3129 13.7715C10.7065 14.3618 11.0452 14.866 11.3806 15.3724C11.9586 16.2467 12.3387 16.2333 12.8306 15.3188C13.4891 14.0957 14.1487 12.8726 14.843 11.5847C14.9559 11.8217 15.0375 11.9872 15.1124 12.1549C15.781 13.6664 16.4327 15.1846 17.1304 16.6827C17.2421 16.9231 17.5652 17.2238 17.7765 17.2137C17.9867 17.2037 18.2684 16.8694 18.3635 16.619C19.079 14.7486 19.7453 12.8603 20.453 10.9866C20.5916 10.6199 20.8275 10.2845 21.0522 9.95807C21.3149 9.57685 21.3686 9.19673 21.0891 8.82445C20.8063 8.44769 20.4194 8.28335 19.9622 8.50247C19.534 8.70818 19.2511 9.08605 19.4211 9.5366C19.5787 9.95584 19.4725 10.2823 19.3406 10.6423C19.1997 11.0257 19.0622 11.4092 18.9213 11.7927C18.5278 12.8603 18.1343 13.928 17.6882 15.1365C17.013 13.6094 16.397 12.2264 15.7966 10.8357C15.7463 10.7194 15.791 10.5461 15.829 10.4097C15.9464 9.98379 15.8614 9.57796 15.4813 9.39014C15.2041 9.25375 14.8005 9.2258 14.502 9.31412C14.0828 9.43822 13.9754 9.84516 14.0067 10.2711C14.0168 10.4142 14.0537 10.5853 13.9933 10.6993C13.3717 11.8799 12.7334 13.0515 12.0995 14.2254L12.1017 14.2243Z" fill="white"/>
<path d="M12.1017 14.2243C12.7356 13.0504 13.374 11.8788 13.9955 10.6982C14.0559 10.5841 14.019 10.4131 14.009 10.27C13.9777 9.84404 14.085 9.4371 14.5042 9.313C14.8027 9.22468 15.2063 9.25263 15.4836 9.38903C15.8637 9.57573 15.9487 9.98267 15.8313 10.4086C15.7944 10.545 15.7497 10.7172 15.7988 10.8346C16.3981 12.2253 17.0152 13.6083 17.6905 15.1354C18.1354 13.928 18.5301 12.8603 18.9236 11.7916C19.0644 11.4092 19.202 11.0246 19.3428 10.6412C19.4747 10.2812 19.581 9.95472 19.4233 9.53548C19.2545 9.08494 19.5362 8.70706 19.9644 8.50135C20.4217 8.28223 20.8074 8.44657 21.0913 8.82333C21.3708 9.19562 21.3172 9.57573 21.0544 9.95696C20.8297 10.2834 20.5938 10.6188 20.4552 10.9855C19.7475 12.8581 19.0812 14.7475 18.3657 16.6179C18.2696 16.8683 17.9878 17.2026 17.7788 17.2126C17.5675 17.2227 17.2444 16.9219 17.1326 16.6816C16.435 15.1846 15.7832 13.6653 15.1146 12.1538C15.0397 11.9861 14.9581 11.8206 14.8452 11.5836C14.1509 12.8715 13.4913 14.0935 12.8329 15.3176C12.3409 16.231 11.9608 16.2456 11.3828 15.3713C11.0486 14.8649 10.7098 14.3607 10.3152 13.7704C9.71594 14.9006 9.15695 15.9404 8.61809 16.9901C8.56219 17.0997 8.61474 17.2674 8.62703 17.4071C8.66393 17.8588 8.36766 18.3116 7.92383 18.4234C7.47552 18.5363 7.10882 18.3787 6.87517 17.984C6.62362 17.5603 6.66275 17.084 7.06634 16.8392C7.60968 16.5105 7.81538 15.9929 8.08482 15.4954C8.38555 14.9409 8.70753 14.3942 8.96354 13.8184C9.13012 13.4439 9.23409 13.0303 9.30005 12.6244C9.37719 12.1437 9.68799 11.7938 10.1676 11.7591C10.664 11.7234 11.0273 12.0543 11.1872 12.5294C11.3873 13.1231 11.6746 13.6865 11.9239 14.2623C11.9843 14.2489 12.0436 14.2366 12.1039 14.2231L12.1017 14.2243Z" fill="url(#paint0_linear_141_2583)"/>
<defs>
<linearGradient id="paint0_linear_141_2583" x1="6.71641" y1="13.4327" x2="21.278" y2="13.4327" gradientUnits="userSpaceOnUse">
<stop stop-color="#5C9CCF"/>
<stop offset="1" stop-color="#64458E"/>
</linearGradient>
</defs>
</svg>
