<svg width="46" height="53" viewBox="0 0 46 53" fill="none" xmlns="http://www.w3.org/2000/svg">
<path fill-rule="evenodd" clip-rule="evenodd" d="M22.3682 0.488387C22.9131 0.170538 23.5869 0.170538 24.1318 0.488387L45.1318 12.7384C45.6694 13.052 46 13.6276 46 14.25V38.75C46 39.3724 45.6694 39.948 45.1318 40.2616L24.1318 52.5116C23.5869 52.8295 22.9131 52.8295 22.3682 52.5116L1.36823 40.2616C0.83059 39.948 0.5 39.3724 0.5 38.75V14.25C0.5 13.6276 0.83059 13.052 1.36823 12.7384L22.3682 0.488387ZM4 16V32.1603L13.2344 16H4ZM17.2656 16L11.2656 26.5L17.2656 37H29.2344L35.2344 26.5L29.2344 16H17.2656ZM27.2344 12.5L22.6066 4.4013L8.7231 12.5H27.2344ZM28.0099 6.80259L37.25 22.9728L41.87 14.8877L28.0099 6.80259ZM42.5 20.8397L33.2656 37H42.5V20.8397ZM37.7769 40.5H19.2656L23.8934 48.5987L37.7769 40.5ZM18.4901 46.1974L9.25 30.0272L4.62995 38.1123L18.4901 46.1974Z" fill="white"/>
</svg>
